<?xml version="1.0" encoding="UTF-8" standalone="no"?>
<!DOCTYPE svg PUBLIC "-//W3C//DTD SVG 1.1//EN" "http://www.w3.org/Graphics/SVG/1.1/DTD/svg11.dtd">
<svg width="100%" height="100%" viewBox="0 0 973 257" version="1.1" xmlns="http://www.w3.org/2000/svg" xmlns:xlink="http://www.w3.org/1999/xlink" xml:space="preserve" xmlns:serif="http://www.serif.com/" style="fill-rule:evenodd;clip-rule:evenodd;stroke-linejoin:round;stroke-miterlimit:2;">
    <g id="Artboard1" transform="matrix(0.506306,0,0,0.237893,0,0)">
        <rect x="0" y="0" width="1920" height="1080" style="fill:none;"/>
        <g transform="matrix(1,0,0,1,-16.683122,5.93235)">
            <g transform="matrix(7.058002,0,0,15.021466,191.233753,809.090037)">
                <path d="M0,-34.495C0,-34.913 -0.166,-35.314 -0.462,-35.609C-0.757,-35.905 -1.158,-36.071 -1.576,-36.071L-10.517,-36.071C-10.935,-36.071 -11.336,-35.905 -11.631,-35.609C-11.927,-35.314 -12.093,-34.913 -12.093,-34.495L-12.093,0.001C-12.093,0.419 -11.927,0.819 -11.631,1.115C-11.336,1.41 -10.935,1.576 -10.517,1.576L-1.576,1.576C-1.158,1.576 -0.757,1.41 -0.462,1.115C-0.166,0.819 0,0.419 0,0.001L0,-34.495Z" style="fill:rgb(32,28,86);"/>
            </g>
            <g transform="matrix(7.058002,0,0,15.021466,430.330619,832.77288)">
                <path d="M0,-37.647C-0.418,-37.647 -0.819,-37.481 -1.114,-37.185C-1.41,-36.89 -1.576,-36.489 -1.576,-36.071L-1.576,-23.374C-1.576,-22.714 -1.987,-22.124 -2.607,-21.896C-3.226,-21.668 -3.922,-21.85 -4.35,-22.352C-8.247,-26.923 -15.071,-34.928 -16.918,-37.093C-17.217,-37.445 -17.655,-37.647 -18.117,-37.647L-26.375,-37.647C-27.245,-37.647 -27.951,-36.942 -27.951,-36.071L-27.951,-1.576C-27.951,-1.158 -27.785,-0.757 -27.489,-0.461C-27.194,-0.166 -26.793,0 -26.375,0L-18.418,0C-18,0 -17.6,-0.166 -17.304,-0.461C-17.009,-0.757 -16.843,-1.158 -16.843,-1.576L-16.843,-14.047C-16.843,-14.705 -16.434,-15.293 -15.817,-15.523C-15.2,-15.753 -14.506,-15.575 -14.075,-15.078C-10.18,-10.576 -3.346,-2.679 -1.5,-0.544C-1.2,-0.199 -0.765,0 -0.308,0L7.957,0C8.375,0 8.775,-0.166 9.071,-0.461C9.367,-0.757 9.532,-1.158 9.532,-1.576L9.532,-36.071C9.532,-36.489 9.367,-36.89 9.071,-37.185C8.775,-37.481 8.375,-37.647 7.957,-37.647L0,-37.647Z" style="fill:rgb(32,28,86);fill-rule:nonzero;"/>
            </g>
            <g transform="matrix(7.058002,0,0,15.021466,548.036914,833.146914)">
                <path d="M0,-37.647C-0.452,-37.647 -0.885,-37.468 -1.205,-37.148C-1.524,-36.829 -1.703,-36.395 -1.703,-35.943L-1.703,-29.721C-1.703,-28.78 -0.941,-28.017 0,-28.017L8.959,-28.017C9.9,-28.017 10.663,-27.255 10.663,-26.314L10.663,-1.703C10.663,-0.763 11.426,0 12.366,0L21.053,0C21.994,0 22.756,-0.763 22.756,-1.703L22.756,-26.314C22.756,-27.255 23.519,-28.017 24.46,-28.017L33.365,-28.017C33.817,-28.017 34.25,-28.197 34.57,-28.516C34.889,-28.836 35.068,-29.269 35.068,-29.721L35.068,-35.943C35.068,-36.395 34.889,-36.829 34.57,-37.148C34.25,-37.468 33.817,-37.647 33.365,-37.647L0,-37.647Z" style="fill:rgb(32,28,86);fill-rule:nonzero;"/>
            </g>
            <g transform="matrix(7.058002,0,0,15.021466,1808.009501,790.150972)">
                <path d="M0,-31.922C2.989,-30.04 4.519,-27.253 4.59,-23.56L4.59,-23.559C4.59,-23.391 4.523,-23.23 4.404,-23.111C4.285,-22.992 4.124,-22.926 3.956,-22.926L-4.955,-22.926C-5.667,-22.926 -6.291,-23.403 -6.477,-24.09C-6.658,-24.753 -7.007,-25.382 -7.493,-25.776C-8.306,-26.434 -9.445,-26.83 -11.029,-26.83C-12.578,-26.83 -13.765,-26.601 -14.59,-26.145C-15.416,-25.688 -15.831,-25.124 -15.831,-24.457C-15.831,-23.506 -15.268,-22.802 -14.142,-22.346C-13.016,-21.888 -11.205,-21.413 -8.707,-20.921C-5.787,-20.322 -3.386,-19.699 -1.505,-19.048C0.377,-18.396 2.021,-17.334 3.43,-15.856C4.836,-14.378 5.558,-12.373 5.593,-9.84C5.593,-5.548 4.142,-2.364 1.24,-0.29C-1.662,1.786 -5.541,2.824 -10.395,2.824C-16.06,2.824 -20.464,1.873 -23.612,-0.026C-26.372,-1.692 -27.923,-4.478 -28.264,-8.388C-28.303,-8.827 -28.156,-9.263 -27.858,-9.589C-27.561,-9.914 -27.14,-10.1 -26.7,-10.1C-24.552,-10.105 -20.814,-10.105 -18.761,-10.105C-17.995,-10.105 -17.341,-9.554 -17.209,-8.8C-17.028,-7.68 -16.585,-6.892 -15.882,-6.437C-14.933,-5.822 -13.455,-5.514 -11.451,-5.514C-9.973,-5.514 -8.751,-5.673 -7.783,-5.989C-6.816,-6.305 -6.332,-6.956 -6.332,-7.94C-6.332,-8.82 -6.869,-9.479 -7.941,-9.919C-9.015,-10.359 -10.765,-10.825 -13.191,-11.318C-16.146,-11.951 -18.591,-12.611 -20.526,-13.297C-22.461,-13.983 -24.149,-15.117 -25.591,-16.7C-27.034,-18.283 -27.755,-20.428 -27.755,-23.137C-27.755,-27.112 -26.217,-30.04 -23.137,-31.922C-20.06,-33.803 -16.164,-34.746 -11.451,-34.746C-6.807,-34.746 -2.991,-33.803 0,-31.922" style="fill:rgb(32,28,86);fill-rule:nonzero;"/>
            </g>
            <g transform="matrix(7.058002,0,0,15.021466,1361.593716,807.614929)">
                <path d="M0,-34.325C0,-35.242 0.744,-35.986 1.661,-35.986L10.433,-35.986C10.873,-35.986 11.295,-35.811 11.608,-35.499C11.918,-35.188 12.093,-34.765 12.093,-34.325L12.093,-9.63C12.093,-9.19 12.268,-8.768 12.581,-8.456C12.891,-8.145 13.314,-7.97 13.754,-7.97L29.749,-7.97C30.666,-7.97 31.41,-7.226 31.41,-6.309L31.41,0C31.41,0.441 31.235,0.863 30.923,1.175C30.612,1.486 30.19,1.661 29.749,1.661L1.661,1.661C0.744,1.661 0,0.918 0,0L0,-34.325Z" style="fill:rgb(32,28,86);fill-rule:nonzero;"/>
            </g>
            <g transform="matrix(7.058002,0,0,15.021466,998.508227,357.710008)">
                <path d="M0,23.513C-0.006,23.515 -0.013,23.517 -0.02,23.52C-0.013,23.517 -0.007,23.515 0,23.513M-1.378,23.923C-1.346,23.915 -1.315,23.908 -1.284,23.9C-1.316,23.909 -1.347,23.916 -1.378,23.923M-1.378,23.923C-1.458,23.943 -1.54,23.964 -1.619,23.978C-1.659,23.991 -1.703,23.997 -1.742,24.003C-1.89,24.036 -2.033,24.069 -2.174,24.087C-2.251,24.107 -2.322,24.12 -2.4,24.127C-3.445,24.294 -4.148,24.262 -4.258,24.255C-11.161,24.255 -16.773,18.637 -16.773,11.734C-16.773,4.837 -11.161,-0.781 -4.258,-0.781C-0.838,-0.781 2.258,0.599 4.516,2.819L4.516,6.857C2.793,3.793 -0.49,1.728 -4.258,1.728C-9.379,1.728 -13.605,5.554 -14.238,10.502C-14.295,10.928 -14.321,11.353 -14.321,11.792L-14.315,11.792C-14.315,17.353 -9.812,21.855 -4.251,21.855C1.225,21.855 5.67,17.494 5.806,12.05C5.813,11.966 5.813,11.876 5.813,11.792C5.813,11.708 5.813,11.618 5.806,11.534L5.806,2.386C5.806,1.012 6.535,-0.252 7.722,-0.942L10.838,-2.736L10.844,-2.736L24.043,-10.355C25.217,-11.032 26.662,-11.032 27.829,-10.355L44.253,-0.878C45.369,-0.233 46.066,0.967 46.066,2.264L46.066,21.016C46.066,22.507 45.274,23.874 43.983,24.616L28.274,33.687C26.823,34.519 25.036,34.519 23.584,33.68L12.134,27.068L15.186,25.307C15.856,24.919 16.385,24.358 16.727,23.694C19.275,25.668 22.475,26.836 25.94,26.836C34.274,26.836 41.034,20.075 41.034,11.734C41.034,3.399 34.274,-3.362 25.94,-3.362L25.881,-3.362C24.727,-3.355 23.598,-3.22 22.514,-2.975C22.34,-2.936 22.159,-2.89 21.978,-2.839C21.798,-2.788 21.624,-2.736 21.449,-2.684C21.23,-2.613 21.011,-2.542 20.791,-2.465C20.779,-2.458 20.759,-2.458 20.746,-2.446C20.404,-2.322 20.069,-2.181 19.74,-2.033C19.624,-1.981 19.508,-1.93 19.391,-1.871C19.334,-1.852 19.275,-1.82 19.217,-1.794C16.385,-0.394 12.753,2.515 10.496,8.528C10.16,9.418 9.857,10.379 9.593,11.412C8.85,14.288 7.806,16.521 6.619,18.256C6.49,18.436 6.367,18.617 6.238,18.784C6,19.101 5.761,19.398 5.516,19.675C5.431,19.778 5.341,19.882 5.251,19.978C5.122,20.114 4.993,20.249 4.871,20.378C4.612,20.637 4.355,20.875 4.096,21.1C4.006,21.178 3.915,21.255 3.825,21.327C3.606,21.514 3.38,21.687 3.154,21.849C2.936,21.998 2.722,22.145 2.509,22.281C2.335,22.391 2.167,22.494 1.994,22.591C1.38,22.94 0.781,23.217 0.213,23.436C0.142,23.465 0.071,23.489 0,23.513C0.013,23.508 0.026,23.503 0.038,23.494C-0.103,23.545 -0.259,23.597 -0.406,23.649C-0.477,23.674 -0.542,23.694 -0.613,23.713C-0.626,23.72 -0.638,23.72 -0.651,23.727C-0.787,23.765 -0.922,23.804 -1.051,23.836C-1.194,23.874 -1.342,23.914 -1.491,23.945C-1.452,23.938 -1.415,23.931 -1.378,23.923M38.455,11.734C38.455,18.636 32.841,24.255 25.94,24.255C22.521,24.255 19.424,22.875 17.166,20.656L17.166,16.733C18.888,19.791 22.166,21.855 25.934,21.855C31.056,21.855 35.28,18.03 35.912,13.083C35.971,12.657 35.997,12.231 35.997,11.792L36.003,11.792C36.003,5.857 30.867,1.129 24.798,1.793C19.663,2.354 15.876,6.889 15.876,12.057L15.876,21.217C15.876,22.578 15.147,23.836 13.966,24.519L10.844,26.319L10.837,26.319L-2.019,33.745C-3.4,34.545 -5.109,34.545 -6.49,33.745L-22.179,24.694C-23.546,23.907 -24.385,22.448 -24.385,20.869L-24.385,2.483C-24.385,1.051 -23.624,-0.271 -22.385,-0.988L-6.148,-10.361C-4.98,-11.032 -3.542,-11.032 -2.374,-10.361L9.553,-3.477L6.515,-1.723C5.857,-1.349 5.341,-0.801 4.986,-0.162C2.451,-2.103 -0.82,-3.361 -4.258,-3.361C-12.593,-3.361 -19.353,3.399 -19.353,11.734C-19.353,20.017 -12.683,26.746 -4.426,26.829C-4.367,26.835 -4.316,26.835 -4.258,26.835C-3.335,26.835 -2.432,26.752 -1.555,26.59C-1.271,26.539 -0.974,26.475 -0.665,26.397C-0.458,26.345 -0.258,26.294 -0.058,26.23C-0.02,26.223 0.02,26.21 0.058,26.197C0.162,26.171 0.265,26.139 0.368,26.101C0.516,26.055 0.665,26.003 0.813,25.952C0.929,25.907 1.045,25.868 1.161,25.823C1.193,25.81 1.225,25.797 1.265,25.778C1.426,25.714 1.593,25.648 1.768,25.571C1.961,25.487 2.148,25.397 2.335,25.306C2.361,25.3 2.387,25.288 2.412,25.274C2.516,25.223 2.619,25.172 2.722,25.12C3.167,24.894 3.599,24.643 4.012,24.365C4.277,24.197 4.541,24.01 4.813,23.81C7.109,22.114 9.521,19.372 11.186,14.953C11.522,14.057 11.831,13.095 12.096,12.057C15.502,-1.181 25.314,-0.813 25.823,-0.781L25.94,-0.781C32.841,-0.781 38.455,4.838 38.455,11.734" style="fill:rgb(77,76,76);"/>
            </g>
        </g>
    </g>
</svg>
