<?xml version="1.0" encoding="UTF-8" standalone="no"?>
<!DOCTYPE svg PUBLIC "-//W3C//DTD SVG 1.1//EN" "http://www.w3.org/Graphics/SVG/1.1/DTD/svg11.dtd">
<svg width="100%" height="100%" viewBox="0 0 117 52" version="1.1" xmlns="http://www.w3.org/2000/svg" xmlns:xlink="http://www.w3.org/1999/xlink" xml:space="preserve" xmlns:serif="http://www.serif.com/" style="fill-rule:evenodd;clip-rule:evenodd;stroke-linejoin:round;stroke-miterlimit:2;">
    <g id="Artboard6" transform="matrix(1,0,0,1,-45.666628,-4.034407)">
        <rect x="45.667" y="4.034" width="116.274" height="51.989" style="fill:none;"/>
        <clipPath id="_clip1">
            <rect x="45.667" y="4.034" width="116.274" height="51.989"/>
        </clipPath>
        <g clip-path="url(#_clip1)">
            <g transform="matrix(1,0,0,1,0.666657,0.034407)">
                <g transform="matrix(1.193004,0,0,1.193004,131.309993,44.390638)">
                    <path d="M0,-10.464L1.494,-13.682L-33.302,-1.791L-31.376,-5.777L-71.78,9.751L-41.441,2.137L-43.927,6.92L-6.316,-7.086L-8.466,-2.914L25.675,-20.215L0,-10.464Z" style="fill:rgb(228,24,55);fill-rule:nonzero;"/>
                </g>
                <g transform="matrix(1.193004,0,0,1.193004,155.094326,6.396905)">
                    <path d="M0,-0.178C0.184,-0.178 0.35,-0.192 0.35,-0.413C0.35,-0.591 0.188,-0.623 0.037,-0.623L-0.258,-0.623L-0.258,-0.178L0,-0.178ZM-0.258,0.628L-0.478,0.628L-0.478,-0.807L0.07,-0.807C0.409,-0.807 0.577,-0.681 0.577,-0.4C0.577,-0.143 0.417,-0.029 0.204,-0.005L0.611,0.628L0.368,0.628L-0.012,0.007L-0.258,0.007L-0.258,0.628ZM0.005,0.948C0.568,0.948 1.012,0.506 1.012,-0.094C1.012,-0.681 0.568,-1.127 0.005,-1.127C-0.566,-1.127 -1.012,-0.681 -1.012,-0.094C-1.012,0.506 -0.566,0.948 0.005,0.948M-1.262,-0.094C-1.262,-0.807 -0.681,-1.335 0.005,-1.335C0.683,-1.335 1.264,-0.807 1.264,-0.094C1.264,0.628 0.683,1.157 0.005,1.157C-0.681,1.157 -1.262,0.628 -1.262,-0.094" style="fill:rgb(228,24,55);fill-rule:nonzero;"/>
                </g>
                <g transform="matrix(1.193004,0,0,1.193004,72.707228,43.884565)">
                    <path d="M0,-27.468L-4.453,-23.709C-4.453,-23.709 -6.222,-25.701 -6.359,-25.855C-6.514,-25.723 -10.157,-22.634 -10.157,-22.634L-9.639,-27.763L-22.666,-16.781L-13.771,-21.055L-16.055,-1.871C-16.055,-1.871 -13.33,0.143 -13.104,0.295C-12.874,-1.533 -10.675,-19.107 -10.556,-20.062L-10.549,-20.101L-7.972,-22.274L-7.424,-21.733L-9.496,-4.237C-9.496,-4.237 -6.729,-2.17 -6.55,-2.049C-6.531,-2.222 -4.676,-18.079 -4.233,-21.863L-1.676,-24.028L-1.13,-23.488L-3.131,-6.428L-0.187,-4.255L2.224,-25.019L0,-27.468Z" style="fill:rgb(228,24,55);fill-rule:nonzero;"/>
                </g>
                <g transform="matrix(1.193004,0,0,1.193004,81.334559,26.042945)">
                    <path d="M0,-8.676L-3.074,-8.154L-3.455,-5.142L-0.385,-5.724L0,-8.676ZM16.524,-7.414L15.288,2.151L14.607,2.883L13.451,1.923L14.6,-7.072L11.523,-6.323L10.339,3.035L9.432,4.246L8.46,3.386L9.615,-6.031L6.527,-5.385L5.496,3.18L4.216,4.918L3.313,4.185L5.306,-11.93L2.294,-11.442L0.433,4.042L-1.1,6.152L-1.861,5.52L-0.584,-3.918L-3.662,-3.289L-5.085,7.649L-2.377,9.772L0.288,6.172L3.075,8.399L5.757,4.751L8.632,7.253L11.469,3.498L13.775,5.526L17.763,1.194L18.989,-7.949L16.524,-7.414ZM23.823,-1.125L22.583,0.398L21.919,-0.175L22.93,-8.134L24.601,-7.249L23.823,-1.125ZM50.855,-12.517L52.309,-10.825L50.505,-9.833L50.855,-12.517ZM58.588,-14.099L59.926,-12.502L58.267,-11.564L58.588,-14.099ZM58.784,-7.827L57.897,-8.572L58.079,-10.029L62.217,-12.371L58.881,-16.504L55.837,-13.847L55.121,-8.106L51.067,-5.873L50.102,-6.664L50.3,-8.208L54.797,-10.688L51.173,-15.065L47.865,-12.249L47.169,-6.799L45.697,-5.374L43.385,-9.943L48.567,-14.67L46.215,-14.328L42.313,-11.007L43.245,-18.448L40.425,-18.058L38.851,-5.312L37.141,-3.436L36.741,-3.774L37.763,-11.859L34.728,-11.164L33.778,-3.849L32.427,-2.216L31.853,-2.718L32.871,-10.738L29.812,-10.13L28.864,-2.63L27.448,-0.828L26.829,-1.372L27.885,-9.747L24.831,-9.092L24.763,-8.439L22.632,-9.469L19.635,-5.644L18.768,1.187L21.664,3.649L24.322,0.222L26.606,2.162L29.101,-1.04L31.242,0.837L33.598,-2.246L35.841,-0.297L38.878,-3.601L41.191,-1.765L41.886,-7.368L44.317,-2.378L47.544,-5.522L49.639,-3.76L55.875,-7.205L57.471,-5.828L63.201,-9.178L63.355,-10.409L58.784,-7.827Z" style="fill:rgb(228,24,55);fill-rule:nonzero;"/>
                </g>
            </g>
        </g>
    </g>
</svg>
