<?xml version="1.0" encoding="UTF-8" standalone="no"?>
<!DOCTYPE svg PUBLIC "-//W3C//DTD SVG 1.1//EN" "http://www.w3.org/Graphics/SVG/1.1/DTD/svg11.dtd">
<svg width="100%" height="100%" viewBox="0 0 206 61" version="1.1" xmlns="http://www.w3.org/2000/svg" xmlns:xlink="http://www.w3.org/1999/xlink" xml:space="preserve" xmlns:serif="http://www.serif.com/" style="fill-rule:evenodd;clip-rule:evenodd;stroke-linejoin:round;stroke-miterlimit:2;">
    <g transform="matrix(1,0,0,1,-1020,-0.858405)">
        <g id="Artboard5" transform="matrix(1,0,0,1,-0.607029,0.858405)">
            <rect x="1020.607" y="0" width="205.607" height="60.058" style="fill:none;"/>
            <g transform="matrix(1.657102,0,0,1.657102,1189.332557,20.188251)">
                <path d="M0,11.801L-3.45,11.801L-1.131,5.509L2.291,5.509L0,11.801ZM-52.394,11.801L-55.844,11.801L-53.554,5.509L-50.103,5.509L-52.394,11.801ZM4.494,11.888L8.148,1.798L-1.943,1.798C-3.247,1.798 -4.668,2.841 -5.132,4.117L-7.887,11.627L-13.28,11.627L-10.67,4.813L-7.916,4.813L-6.611,1.218L-9.307,1.218L-7.452,-3.682L-12.236,-3.682L-14.034,1.218L-17.194,1.218L-18.499,4.813L-15.338,4.813L-17.832,11.627L-23.341,11.627L-19.485,1.45L-24.182,1.45L-27.98,11.859L-32.329,11.859L-33.547,7.945L-26.53,1.653L-31.518,1.653L-37.172,6.727L-37.607,6.727L-33.953,-3.334L-38.331,-3.334L-43.869,11.888L-47.9,11.888L-44.275,1.798L-54.337,1.798C-55.641,1.798 -57.062,2.841 -57.555,4.117L-60.455,12.12L-64.224,12.12L-60.455,1.769L-68.718,1.769L-67.819,-0.725L-75.909,-0.725L-75.039,-3.102L-88.638,-3.102L-88.638,1.247L-80.983,1.247L-86.173,15.483L-81.824,15.483L-77.504,3.653L-73.763,3.653L-78.084,15.483L-73.705,15.483L-70.313,6.147L-66.398,6.147L-69.791,15.483L-62.832,15.483L-60.6,13.193C-60.57,14.323 -59.991,15.483 -59.005,15.483L-55.004,15.483L-52.597,12.932C-52.655,14.121 -52.046,15.483 -51.002,15.483L-47.001,15.483L-44.188,12.729L-45.174,15.483L-40.796,15.483L-38.215,8.409L-37.722,8.409L-35.519,15.483L-30.851,15.483L-28.212,12.7C-28.328,13.947 -27.69,15.396 -26.617,15.396L-20.789,15.396L-18.093,12.439C-18.325,13.715 -17.687,15.396 -16.527,15.396L-10.699,15.396L-8.177,12.642C-8.38,13.889 -7.742,15.483 -6.611,15.483L-2.61,15.483L-0.203,12.932C-0.261,14.121 0.348,15.483 1.392,15.483L9.075,15.483L9.075,11.888L4.494,11.888Z" style="fill:rgb(208,32,39);"/>
            </g>
            <g transform="matrix(-1.657102,0,0,1.657102,1149.933294,20.668148)">
                <path d="M-6.263,-3.972L-1.45,-3.972L0,0L-4.755,0L-6.263,-3.972Z" style="fill:rgb(208,32,39);"/>
            </g>
        </g>
    </g>
</svg>
