<?xml version="1.0" encoding="UTF-8" standalone="no"?>
<!DOCTYPE svg PUBLIC "-//W3C//DTD SVG 1.1//EN" "http://www.w3.org/Graphics/SVG/1.1/DTD/svg11.dtd">
<svg width="100%" height="100%" viewBox="0 0 187 24" version="1.1" xmlns="http://www.w3.org/2000/svg" xmlns:xlink="http://www.w3.org/1999/xlink" xml:space="preserve" xmlns:serif="http://www.serif.com/" style="fill-rule:evenodd;clip-rule:evenodd;stroke-linejoin:round;stroke-miterlimit:2;">
    <g id="Artboard1" transform="matrix(1.021915,0,0,1.134161,-11.788247,-22.087915)">
        <rect x="11.535" y="19.475" width="182.536" height="21.108" style="fill:none;"/>
        <g transform="matrix(0.978555,0,0,0.881709,2.20463,3.552157)">
            <g transform="matrix(1.411137,0,0,1.411137,160.518543,28.221344)">
                <path d="M0,2.562C-0.244,3.733 -0.951,4.565 -2.656,4.565C-4.823,4.565 -5.415,3.074 -5.415,1.236C-5.415,-0.603 -4.731,-2.093 -2.656,-2.093C-1.122,-2.093 -0.347,-1.225 -0.052,-0.014L5.134,-0.026C4.708,-3.533 2.471,-6.198 -2.451,-6.198C-8.471,-6.198 -10.113,-2.849 -10.113,1.281C-10.113,5.412 -8.152,8.76 -2.451,8.76C2.77,8.76 4.781,6.08 5.147,2.558L0,2.562Z" style="fill:rgb(30,28,26);fill-rule:nonzero;"/>
            </g>
            <g transform="matrix(1.411137,0,0,1.411137,33.121052,39.417168)">
                <path d="M0,-13.339L5.427,-13.339L10.17,-6.156L10.17,-13.339L14.548,-13.339L14.548,-0.023L9.508,-0.023L4.378,-7.684L4.378,0L0,0L0,-13.339Z" style="fill:rgb(30,28,26);"/>
            </g>
            <g transform="matrix(1.411137,0,0,1.411137,96.701827,29.667619)">
                <path d="M0,0.479C0,0.479 2.47,-0.729 2.417,-3.032C2.393,-4.074 1.551,-6.248 -1.186,-6.43L-12.541,-6.43L-12.541,6.909L-7.821,6.909L-7.821,2.258L-4.219,2.258C-4.219,2.258 -3.103,2.184 -2.827,3.375C-2.759,3.671 -2.394,4.652 -2.212,5.792C-2.172,6.044 -2.03,6.909 -2.03,6.909L2.941,6.909C2.941,6.909 2.098,0.661 0,0.479M-3.124,-0.98L-7.867,-0.98L-7.867,-3.01L-3.124,-3.01C-1.984,-3.01 -2.007,-0.98 -3.124,-0.98" style="fill:rgb(30,28,26);fill-rule:nonzero;"/>
            </g>
            <g transform="matrix(1.411137,0,0,1.411137,137.372502,25.807029)">
                <path d="M0,5.951L-4.287,5.951L-2.645,9.645L6.932,9.645L0.798,-3.694L-5.45,-3.694L-10.74,9.645L-5.951,9.645L-2.417,0.615L0,5.951Z" style="fill:rgb(30,28,26);"/>
            </g>
            <g transform="matrix(1.411137,0,0,1.411137,193.392824,39.491535)">
                <path d="M0,-13.501C-0.31,-13.811 -0.723,-13.982 -1.161,-13.982L-11.177,-13.982C-12.082,-13.982 -12.819,-13.246 -12.819,-12.34L-12.819,-1.16C-12.819,-0.722 -12.648,-0.309 -12.338,-0C-12.028,0.31 -11.615,0.481 -11.177,0.481L-1.161,0.481C-0.723,0.481 -0.31,0.31 0,-0C0.31,-0.309 0.481,-0.722 0.481,-1.16L0.481,-12.34C0.481,-12.779 0.31,-13.191 0,-13.501M-0.614,-1.16C-0.614,-0.858 -0.859,-0.613 -1.161,-0.613L-11.177,-0.613C-11.323,-0.613 -11.46,-0.67 -11.564,-0.774C-11.667,-0.877 -11.724,-1.015 -11.724,-1.16L-11.724,-12.34C-11.724,-12.486 -11.667,-12.624 -11.564,-12.727C-11.46,-12.831 -11.323,-12.887 -11.177,-12.887L-1.161,-12.887C-1.015,-12.887 -0.878,-12.831 -0.774,-12.727C-0.671,-12.624 -0.614,-12.486 -0.614,-12.34L-0.614,-1.16Z" style="fill:rgb(30,28,26);fill-rule:nonzero;"/>
            </g>
            <g transform="matrix(1.411137,0,0,1.411137,119.94947,39.417168)">
                <path d="M0,-13.339L-11.549,-13.339L-11.561,0L-6.841,0L-6.841,-4.652L-3.136,-4.652C-3.162,-4.656 0.175,-4.649 0.148,-4.652C0.148,-4.652 3.409,-4.834 3.454,-9.212C3.467,-10.443 2.326,-12.951 0,-13.339M-2.143,-7.889L-6.886,-7.889L-6.886,-9.919L-2.143,-9.919C-1.003,-9.919 -1.026,-7.889 -2.143,-7.889" style="fill:rgb(30,28,26);fill-rule:nonzero;"/>
            </g>
            <g transform="matrix(1.411137,0,0,1.411137,11.535447,39.507199)">
                <path d="M0,-13.391L13.049,-13.391L13.049,-9.959L4.857,-9.959L4.857,-8.289L12.298,-8.289L12.298,-5.101L4.857,-5.101L4.857,-3.432L13.291,-3.432L13.291,0L0,0L0,-13.391Z" style="fill:rgb(30,28,26);"/>
            </g>
            <g transform="matrix(1.411137,0,0,1.411137,57.052533,39.550379)">
                <path d="M0,-13.391L13.048,-13.391L13.048,-9.959L4.857,-9.959L4.857,-8.289L12.298,-8.289L12.298,-5.101L4.857,-5.101L4.857,-3.432L13.291,-3.432L13.291,0L0,0L0,-13.391Z" style="fill:rgb(30,28,26);"/>
            </g>
            <g transform="matrix(1.411137,0,0,1.411137,192.527092,22.077675)">
                <path d="M0,11.18C0,11.482 -0.245,11.727 -0.548,11.727L-10.563,11.727C-10.71,11.727 -10.847,11.67 -10.951,11.567C-11.054,11.463 -11.111,11.326 -11.111,11.18L-11.111,0C-11.111,-0.146 -11.054,-0.284 -10.951,-0.387C-10.847,-0.491 -10.71,-0.547 -10.563,-0.547L-0.548,-0.547C-0.401,-0.547 -0.264,-0.491 -0.16,-0.387C-0.057,-0.284 0,-0.146 0,0L0,11.18Z" style="fill:rgb(254,204,3);fill-rule:nonzero;"/>
            </g>
            <g transform="matrix(1.411137,0,0,1.411137,186.294803,37.795771)">
                <path d="M0,-10.964L-1.936,-9.846L0.081,-8.873L-5.431,-5.69L-5.431,-1.896L-2.146,0L1.14,-1.897L1.14,-4.788L-0.866,-5.84L-0.866,-3.055L-2.146,-2.316L-3.425,-3.055L-3.425,-4.532L1.177,-7.189L1.177,-5.041L3.105,-6.154L3.105,-9.465L0,-10.964Z" style="fill:rgb(30,28,26);"/>
            </g>
            <g transform="matrix(1.411137,0,0,1.411137,168.275001,37.81468)">
                <path d="M0,-0.013C0,-0.579 0.424,-1.016 0.978,-1.016C1.525,-1.016 1.95,-0.579 1.95,-0.013C1.95,0.566 1.525,1.003 0.978,1.003C0.424,1.003 0,0.566 0,-0.013M-0.215,-0.013C-0.215,0.667 0.329,1.177 0.978,1.177C1.624,1.177 2.165,0.667 2.165,-0.013C2.165,-0.681 1.624,-1.19 0.978,-1.19C0.329,-1.19 -0.215,-0.681 -0.215,-0.013M0.516,0.684L0.731,0.684L0.731,0.089L0.959,0.089L1.336,0.684L1.567,0.684L1.171,0.073C1.377,0.05 1.535,-0.054 1.535,-0.304C1.535,-0.57 1.38,-0.7 1.051,-0.7L0.516,-0.7L0.516,0.684ZM0.731,-0.526L1.016,-0.526C1.161,-0.526 1.32,-0.497 1.32,-0.314C1.32,-0.095 1.146,-0.086 0.956,-0.086L0.731,-0.086L0.731,-0.526Z" style="fill:rgb(30,28,26);fill-rule:nonzero;"/>
            </g>
        </g>
    </g>
</svg>
