<?xml version="1.0" encoding="UTF-8" standalone="no"?>
<!DOCTYPE svg PUBLIC "-//W3C//DTD SVG 1.1//EN" "http://www.w3.org/Graphics/SVG/1.1/DTD/svg11.dtd">
<svg width="100%" height="100%" viewBox="0 0 177 27" version="1.1" xmlns="http://www.w3.org/2000/svg" xmlns:xlink="http://www.w3.org/1999/xlink" xml:space="preserve" xmlns:serif="http://www.serif.com/" style="fill-rule:evenodd;clip-rule:evenodd;stroke-linejoin:round;stroke-miterlimit:2;">
    <g id="Artboard4" transform="matrix(0.973115,0,0,0.566285,-0.053852,-0.54045)">
        <rect x="0.055" y="0.954" width="181.387" height="46.495" style="fill:none;"/>
        <g transform="matrix(68.567612,0,0,-117.827805,29.674505,23.893996)">
            <rect x="0.248" y="-0.161" width="0.099" height="0.322" style="fill:url(#_Linear1);"/>
        </g>
        <g transform="matrix(27.436872,107.983965,62.83918,-47.14801,110.643836,-58.006276)">
            <path d="M0.541,-0.097L0.835,-0.226L0.979,0.102L0.908,0.133L0.804,-0.104L0.757,-0.084L0.853,0.136L0.792,0.163L0.696,-0.057L0.649,-0.036L0.75,0.196L0.681,0.226L0.541,-0.097Z" style="fill:url(#_Linear2);fill-rule:nonzero;"/>
        </g>
        <g transform="matrix(27.436879,107.984302,62.839376,-47.148021,137.564564,-77.872205)">
            <path d="M0.843,0.174L1.057,0.081L1.057,0.08L0.769,0.004L0.707,-0.136L1.002,-0.265L1.042,-0.174L0.828,-0.081L0.828,-0.08L1.116,-0.004L1.177,0.136L0.882,0.265L0.843,0.174Z" style="fill:url(#_Linear3);fill-rule:nonzero;"/>
        </g>
        <g transform="matrix(27.553229,108.44239,63.105951,-47.347959,84.192154,-38.794388)">
            <path d="M0.345,-0.134L0.638,-0.263L0.757,0.009C0.796,0.099 0.78,0.143 0.708,0.175L0.618,0.214C0.546,0.245 0.502,0.227 0.463,0.137L0.345,-0.134ZM0.457,-0.076L0.526,0.084C0.543,0.122 0.561,0.132 0.603,0.114L0.642,0.097C0.684,0.079 0.688,0.059 0.672,0.02L0.602,-0.14L0.457,-0.076Z" style="fill:url(#_Linear4);fill-rule:nonzero;"/>
        </g>
        <g transform="matrix(27.436877,107.984251,62.839346,-47.148019,55.107286,-18.112806)">
            <path d="M0.199,-0.035L0.493,-0.163L0.621,0.13L0.546,0.163L0.457,-0.04L0.238,0.056L0.199,-0.035Z" style="fill:url(#_Linear5);fill-rule:nonzero;"/>
        </g>
        <g transform="matrix(27.436571,107.983174,62.838719,-47.147492,21.341069,6.116781)">
            <path d="M0.075,0.197L0.264,0.039L0.263,0.038L0.014,0.058L-0.022,-0.026L0.162,-0.195L0.161,-0.196L-0.083,-0.164L-0.121,-0.252L0.215,-0.285L0.261,-0.182L0.096,-0.028L0.097,-0.027L0.321,-0.043L0.367,0.061L0.114,0.285L0.075,0.197Z" style="fill:url(#_Linear6);fill-rule:nonzero;"/>
        </g>
    </g>
    <defs>
        <linearGradient id="_Linear1" x1="0" y1="0" x2="1" y2="0" gradientUnits="userSpaceOnUse" gradientTransform="matrix(0.400141,-0.916453,0.916453,0.400141,0.178277,0.272368)"><stop offset="0" style="stop-color:rgb(120,52,34);stop-opacity:1"/><stop offset="0.01" style="stop-color:rgb(120,52,34);stop-opacity:1"/><stop offset="0.18" style="stop-color:rgb(236,80,43);stop-opacity:1"/><stop offset="0.23" style="stop-color:rgb(237,87,45);stop-opacity:1"/><stop offset="0.31" style="stop-color:rgb(239,107,46);stop-opacity:1"/><stop offset="0.37" style="stop-color:rgb(241,129,45);stop-opacity:1"/><stop offset="0.56" style="stop-color:rgb(236,80,43);stop-opacity:1"/><stop offset="1" style="stop-color:rgb(85,33,19);stop-opacity:1"/></linearGradient>
        <linearGradient id="_Linear2" x1="0" y1="0" x2="1" y2="0" gradientUnits="userSpaceOnUse" gradientTransform="matrix(1,0,0,1,0,0)"><stop offset="0" style="stop-color:rgb(120,52,34);stop-opacity:1"/><stop offset="0.01" style="stop-color:rgb(120,52,34);stop-opacity:1"/><stop offset="0.18" style="stop-color:rgb(236,80,43);stop-opacity:1"/><stop offset="0.23" style="stop-color:rgb(237,87,45);stop-opacity:1"/><stop offset="0.31" style="stop-color:rgb(239,107,46);stop-opacity:1"/><stop offset="0.37" style="stop-color:rgb(241,129,45);stop-opacity:1"/><stop offset="0.56" style="stop-color:rgb(236,80,43);stop-opacity:1"/><stop offset="1" style="stop-color:rgb(85,33,19);stop-opacity:1"/></linearGradient>
        <linearGradient id="_Linear3" x1="0" y1="0" x2="1" y2="0" gradientUnits="userSpaceOnUse" gradientTransform="matrix(1,0,0,1,0,-0.000013)"><stop offset="0" style="stop-color:rgb(120,52,34);stop-opacity:1"/><stop offset="0.01" style="stop-color:rgb(120,52,34);stop-opacity:1"/><stop offset="0.18" style="stop-color:rgb(236,80,43);stop-opacity:1"/><stop offset="0.23" style="stop-color:rgb(237,87,45);stop-opacity:1"/><stop offset="0.31" style="stop-color:rgb(239,107,46);stop-opacity:1"/><stop offset="0.37" style="stop-color:rgb(241,129,45);stop-opacity:1"/><stop offset="0.56" style="stop-color:rgb(236,80,43);stop-opacity:1"/><stop offset="1" style="stop-color:rgb(85,33,19);stop-opacity:1"/></linearGradient>
        <linearGradient id="_Linear4" x1="0" y1="0" x2="1" y2="0" gradientUnits="userSpaceOnUse" gradientTransform="matrix(1,0,0,1,0,-0.017245)"><stop offset="0" style="stop-color:rgb(120,52,34);stop-opacity:1"/><stop offset="0.01" style="stop-color:rgb(120,52,34);stop-opacity:1"/><stop offset="0.18" style="stop-color:rgb(236,80,43);stop-opacity:1"/><stop offset="0.23" style="stop-color:rgb(237,87,45);stop-opacity:1"/><stop offset="0.31" style="stop-color:rgb(239,107,46);stop-opacity:1"/><stop offset="0.37" style="stop-color:rgb(241,129,45);stop-opacity:1"/><stop offset="0.56" style="stop-color:rgb(236,80,43);stop-opacity:1"/><stop offset="1" style="stop-color:rgb(85,33,19);stop-opacity:1"/></linearGradient>
        <linearGradient id="_Linear5" x1="0" y1="0" x2="1" y2="0" gradientUnits="userSpaceOnUse" gradientTransform="matrix(1,0,0,1,0,0)"><stop offset="0" style="stop-color:rgb(120,52,34);stop-opacity:1"/><stop offset="0.01" style="stop-color:rgb(120,52,34);stop-opacity:1"/><stop offset="0.18" style="stop-color:rgb(236,80,43);stop-opacity:1"/><stop offset="0.23" style="stop-color:rgb(237,87,45);stop-opacity:1"/><stop offset="0.31" style="stop-color:rgb(239,107,46);stop-opacity:1"/><stop offset="0.37" style="stop-color:rgb(241,129,45);stop-opacity:1"/><stop offset="0.56" style="stop-color:rgb(236,80,43);stop-opacity:1"/><stop offset="1" style="stop-color:rgb(85,33,19);stop-opacity:1"/></linearGradient>
        <linearGradient id="_Linear6" x1="0" y1="0" x2="1" y2="0" gradientUnits="userSpaceOnUse" gradientTransform="matrix(1,0,0,1,0,0.000004)"><stop offset="0" style="stop-color:rgb(120,52,34);stop-opacity:1"/><stop offset="0.01" style="stop-color:rgb(120,52,34);stop-opacity:1"/><stop offset="0.18" style="stop-color:rgb(236,80,43);stop-opacity:1"/><stop offset="0.23" style="stop-color:rgb(237,87,45);stop-opacity:1"/><stop offset="0.31" style="stop-color:rgb(239,107,46);stop-opacity:1"/><stop offset="0.37" style="stop-color:rgb(241,129,45);stop-opacity:1"/><stop offset="0.56" style="stop-color:rgb(236,80,43);stop-opacity:1"/><stop offset="1" style="stop-color:rgb(85,33,19);stop-opacity:1"/></linearGradient>
    </defs>
</svg>
