<?xml version="1.0" encoding="UTF-8" standalone="no"?>
<!DOCTYPE svg PUBLIC "-//W3C//DTD SVG 1.1//EN" "http://www.w3.org/Graphics/SVG/1.1/DTD/svg11.dtd">
<svg width="100%" height="100%" viewBox="0 0 206 61" version="1.1" xmlns="http://www.w3.org/2000/svg" xmlns:xlink="http://www.w3.org/1999/xlink" xml:space="preserve" xmlns:serif="http://www.serif.com/" style="fill-rule:evenodd;clip-rule:evenodd;stroke-linejoin:round;stroke-miterlimit:2;">
    <g transform="matrix(1,0,0,1,0,-0.858405)">
        <g id="Artboard1" transform="matrix(0.107087,0,0,0.055609,0,0.858405)">
            <rect x="0" y="0" width="1920" height="1080" style="fill:none;"/>
            <g transform="matrix(1,0,0,1,60.830848,36.393204)">
                <g transform="matrix(14.723611,0,0,28.353311,260.311688,203.033351)">
                    <path d="M0,21.202C-5.852,21.202 -10.601,16.44 -10.601,10.601C-10.601,4.762 -5.852,0 0,0C5.852,0 10.601,4.762 10.601,10.601C10.601,16.44 5.852,21.202 0,21.202M0,-1.181C-6.501,-1.181 -11.782,4.1 -11.782,10.601C-11.782,17.102 -6.501,22.383 0,22.383C6.501,22.383 11.782,17.102 11.782,10.601C11.782,4.1 6.501,-1.181 0,-1.181" style="fill:rgb(30,28,26);fill-rule:nonzero;"/>
                </g>
                <g transform="matrix(14.723611,0,0,28.353311,339.786793,370.037185)">
                    <path d="M0,9.421L-0.285,9.771L-0.247,9.33C-0.208,8.967 -0.195,8.591 -0.195,8.214L-0.195,1.207C-0.195,0.831 -0.208,0.455 -0.247,0.092L-0.26,-0.103L-0.272,-0.311L-0.272,-0.363L0,-0.012C1.064,1.311 1.648,2.998 1.648,4.698C1.648,6.398 1.064,8.097 0,9.421M-1.609,6.476C-1.609,6.605 -1.713,6.709 -1.843,6.709L-8.979,6.709C-9.109,6.709 -9.2,6.605 -9.213,6.476L-9.213,2.946C-9.213,2.816 -9.109,2.713 -8.979,2.713L-1.843,2.713C-1.713,2.713 -1.609,2.816 -1.609,2.946L-1.609,6.476ZM-10.562,9.33L-10.523,9.771L-10.809,9.421C-13.001,6.657 -13.001,2.752 -10.809,-0.012L-10.562,-0.324L-10.523,-0.363L-10.562,0.092C-10.601,0.455 -10.614,0.831 -10.614,1.207L-10.614,8.201C-10.614,8.578 -10.588,8.954 -10.562,9.33M-1.194,-2.841C-1.233,-2.867 -1.285,-2.88 -1.336,-2.88C-1.492,-2.88 -1.609,-2.763 -1.609,-2.607L-1.609,1.078C-1.609,1.207 -1.713,1.311 -1.843,1.311L-8.979,1.311C-9.109,1.311 -9.2,1.207 -9.213,1.078L-9.213,-2.607C-9.213,-2.659 -9.226,-2.698 -9.252,-2.75C-9.329,-2.88 -9.498,-2.919 -9.628,-2.841C-12.262,-1.219 -13.858,1.597 -13.858,4.711C-13.858,7.825 -12.262,10.641 -9.602,12.263C-9.563,12.289 -9.511,12.302 -9.459,12.302C-9.303,12.302 -9.187,12.185 -9.187,12.029L-9.187,8.344C-9.187,8.214 -9.083,8.123 -8.953,8.11L-1.817,8.11C-1.687,8.11 -1.583,8.214 -1.583,8.344L-1.583,12.029C-1.583,12.081 -1.57,12.12 -1.544,12.172C-1.466,12.302 -1.298,12.34 -1.168,12.263C1.492,10.641 3.088,7.825 3.088,4.711C3.088,1.597 1.466,-1.219 -1.194,-2.841" style="fill:rgb(30,28,26);fill-rule:nonzero;"/>
                </g>
                <g transform="matrix(14.723611,0,0,28.353311,884.460265,358.307421)">
                    <path d="M0,10.25C-2.336,10.25 -3.841,8.239 -3.841,5.125C-3.841,2.024 -2.336,0.025 0,0.025C2.349,0.025 3.867,2.024 3.867,5.125C3.867,8.239 2.349,10.25 0,10.25M0,-3.958C-4.762,-3.958 -7.954,-0.312 -7.954,5.125C-7.954,10.561 -4.762,14.208 0,14.208C4.762,14.208 7.954,10.561 7.954,5.125C7.954,-0.312 4.762,-3.958 0,-3.958M33.101,10.25C31.141,10.25 29.026,8.615 29.026,5.021C29.026,1.738 31.012,0.025 32.971,0.025C34.398,0.025 35.397,0.622 36.189,1.946L39.536,-0.273C37.824,-2.79 35.787,-3.932 32.945,-3.932C27.378,-3.932 24.887,0.57 24.887,5.021C24.887,10.432 28.183,14.208 32.893,14.208C36.396,14.208 37.992,12.923 39.666,10.548L36.293,8.278C35.54,9.497 34.723,10.25 33.101,10.25ZM51.785,-3.517L51.785,2.815C51.785,2.88 51.733,2.932 51.669,2.932L46.349,2.932C46.284,2.932 46.232,2.88 46.232,2.815L46.232,-3.517L41.872,-3.517L41.872,13.792L46.232,13.792L46.232,6.993C46.232,6.928 46.284,6.876 46.349,6.876L51.669,6.876C51.733,6.876 51.785,6.928 51.785,6.993L51.785,13.792L56.171,13.792L56.171,-3.517L51.785,-3.517ZM17.595,3.373L16.972,3.243C15.571,2.945 14.208,2.568 14.208,1.362C14.208,0.155 15.337,-0.39 16.453,-0.39C17.764,-0.39 19.061,0.194 20.047,1.206L22.616,-1.337C21.513,-2.557 19.554,-3.958 16.388,-3.958C12.573,-3.958 10.004,-1.791 10.004,1.44C10.004,4.852 12.69,6.137 14.948,6.617L15.558,6.747C17.751,7.214 18.789,7.564 18.789,8.81C18.789,9.926 17.789,10.665 16.31,10.665C14.572,10.665 13.027,9.9 11.86,8.459L9.226,11.042C10.627,12.702 12.482,14.208 16.362,14.208C19.671,14.208 23.032,12.287 23.032,8.602C23.019,4.826 20.449,3.97 17.595,3.373ZM-16.583,10.38L-19.801,10.38C-19.866,10.38 -19.917,10.328 -19.917,10.263L-19.917,6.811C-19.917,6.747 -19.866,6.695 -19.801,6.695L-16.661,6.695C-15.116,6.695 -14.234,7.356 -14.234,8.524C-14.234,9.731 -15.052,10.38 -16.583,10.38ZM-19.917,0.025C-19.917,-0.04 -19.866,-0.091 -19.801,-0.091L-16.583,-0.091C-15.519,-0.091 -14.792,0.622 -14.792,1.686C-14.792,2.517 -15.441,3.412 -16.661,3.412L-19.801,3.412C-19.866,3.412 -19.917,3.36 -19.917,3.295L-19.917,0.025ZM-12.833,4.917C-12.898,4.891 -12.976,4.865 -12.976,4.787C-12.976,4.735 -12.95,4.696 -12.898,4.671C-12.807,4.632 -10.562,3.827 -10.562,1.18C-10.562,-1.765 -12.547,-3.517 -15.895,-3.517L-24.005,-3.517L-24.005,13.792L-15.155,13.792C-12.573,13.792 -9.797,11.963 -9.797,9.017C-9.797,6.202 -11.924,5.215 -12.833,4.917Z" style="fill:rgb(229,36,37);fill-rule:nonzero;"/>
                </g>
            </g>
        </g>
    </g>
</svg>
