<?xml version="1.0" encoding="UTF-8" standalone="no"?>
<!DOCTYPE svg PUBLIC "-//W3C//DTD SVG 1.1//EN" "http://www.w3.org/Graphics/SVG/1.1/DTD/svg11.dtd">
<svg width="100%" height="100%" viewBox="0 0 206 61" version="1.1" xmlns="http://www.w3.org/2000/svg" xmlns:xlink="http://www.w3.org/1999/xlink" xml:space="preserve" xmlns:serif="http://www.serif.com/" style="fill-rule:evenodd;clip-rule:evenodd;stroke-linejoin:round;stroke-miterlimit:2;">
    <g transform="matrix(1,0,0,1,-1265.627651,0)">
        <g id="Artboard6" transform="matrix(1,0,0,1,-9.979378,0)">
            <rect x="1275.607" y="0" width="205.607" height="60.058" style="fill:none;"/>
            <g transform="matrix(1.180672,0,0,1.180672,-248.813539,-6.644277)">
                <g transform="matrix(1.359804,0,0,1.359804,1320.144317,15.71599)">
                    <rect x="34.772" y="0.365" width="50.551" height="21.84" style="fill:rgb(0,83,155);"/>
                </g>
                <g transform="matrix(1.359804,0,0,1.359804,1401.359134,39.873582)">
                    <path d="M0,-12.961L0,-12.615C-0.327,-12.615 -0.595,-12.556 -0.801,-12.438C-1.006,-12.319 -1.202,-12.098 -1.389,-11.774C-1.511,-11.556 -1.707,-11.036 -1.975,-10.214L-5.497,0L-5.873,0L-8.751,-8.102L-11.613,0L-11.949,0L-15.704,-10.523C-15.986,-11.307 -16.161,-11.771 -16.235,-11.915C-16.359,-12.151 -16.532,-12.326 -16.75,-12.438C-16.958,-12.556 -17.249,-12.615 -17.615,-12.615L-17.615,-12.961L-12.935,-12.961L-12.935,-12.615L-13.159,-12.615C-13.49,-12.615 -13.74,-12.541 -13.915,-12.391C-14.09,-12.242 -14.174,-12.06 -14.174,-11.849C-14.174,-11.631 -14.04,-11.13 -13.766,-10.345L-11.278,-3.233L-9.181,-9.279L-9.552,-10.345L-9.852,-11.195C-9.982,-11.506 -10.127,-11.781 -10.291,-12.018C-10.369,-12.135 -10.47,-12.235 -10.588,-12.316C-10.744,-12.428 -10.899,-12.509 -11.054,-12.56C-11.17,-12.597 -11.357,-12.615 -11.613,-12.615L-11.613,-12.961L-6.692,-12.961L-6.692,-12.615L-7.027,-12.615C-7.375,-12.615 -7.63,-12.541 -7.791,-12.391C-7.954,-12.242 -8.034,-12.039 -8.034,-11.784C-8.034,-11.466 -7.894,-10.912 -7.616,-10.12L-5.19,-3.233L-2.786,-10.214C-2.514,-10.986 -2.376,-11.522 -2.376,-11.821C-2.376,-11.964 -2.423,-12.098 -2.516,-12.224C-2.602,-12.348 -2.715,-12.435 -2.85,-12.484C-3.089,-12.571 -3.396,-12.615 -3.776,-12.615L-3.776,-12.961L0,-12.961Z" style="fill:white;"/>
                </g>
                <g transform="matrix(1.359804,0,0,1.359804,1409.876808,22.916151)">
                    <path d="M0,11.98L0,12.326L-5.416,12.326L-5.416,11.98L-4.969,11.98C-4.447,11.98 -4.068,11.827 -3.833,11.522C-3.682,11.323 -3.608,10.843 -3.608,10.083L-3.608,1.897C-3.608,1.255 -3.65,0.832 -3.727,0.626C-3.791,0.47 -3.92,0.337 -4.112,0.224C-4.384,0.074 -4.669,0 -4.969,0L-5.416,0L-5.416,-0.346L0,-0.346L0,0L-0.457,0C-0.974,0 -1.351,0.153 -1.586,0.457C-1.741,0.657 -1.818,1.137 -1.818,1.897L-1.818,10.083C-1.818,10.725 -1.778,11.148 -1.697,11.353C-1.635,11.51 -1.504,11.644 -1.304,11.755C-1.038,11.905 -0.756,11.98 -0.457,11.98L0,11.98Z" style="fill:white;"/>
                </g>
                <g transform="matrix(1.359804,0,0,1.359804,1425.831792,39.67709)">
                    <path d="M0,-12.672L0.138,-9.7L-0.215,-9.7C-0.283,-10.224 -0.375,-10.598 -0.494,-10.822C-0.686,-11.184 -0.945,-11.448 -1.269,-11.616C-1.586,-11.79 -2.006,-11.878 -2.527,-11.878L-4.306,-11.878L-4.306,-2.197C-4.306,-1.418 -4.223,-0.932 -4.055,-0.74C-3.818,-0.477 -3.455,-0.346 -2.963,-0.346L-2.527,-0.346L-2.527,0L-7.886,0L-7.886,-0.346L-7.438,-0.346C-6.906,-0.346 -6.524,-0.507 -6.301,-0.833C-6.165,-1.032 -6.095,-1.487 -6.095,-2.197L-6.095,-11.878L-7.616,-11.878C-8.206,-11.878 -8.626,-11.834 -8.873,-11.747C-9.198,-11.628 -9.473,-11.402 -9.702,-11.064C-9.932,-10.729 -10.071,-10.274 -10.113,-9.7L-10.466,-9.7L-10.318,-12.672L0,-12.672Z" style="fill:white;"/>
                </g>
                <g transform="matrix(1.359804,0,0,1.359804,1326.135612,22.445659)">
                    <path d="M0,12.672L0,12.326L0.42,12.326C0.786,12.326 1.065,12.271 1.258,12.158C1.458,12.04 1.602,11.88 1.696,11.681C1.753,11.551 1.782,11.158 1.782,10.503L1.782,2.168C1.782,1.52 1.746,1.115 1.678,0.953C1.609,0.791 1.47,0.651 1.258,0.533C1.055,0.408 0.773,0.346 0.42,0.346L0,0.346L0,0L5.656,0C7.168,0 8.383,0.206 9.303,0.617C10.428,1.122 11.278,1.885 11.857,2.906C12.439,3.928 12.732,5.084 12.732,6.373C12.732,7.265 12.59,8.088 12.303,8.84C12.016,9.588 11.648,10.208 11.194,10.701C10.742,11.186 10.215,11.579 9.619,11.878C9.029,12.171 8.305,12.398 7.449,12.559C7.068,12.635 6.471,12.672 5.656,12.672L0,12.672ZM4.818,0.72L4.818,10.607C4.818,11.13 4.845,11.451 4.892,11.57C4.944,11.688 5.028,11.778 5.146,11.84C5.314,11.933 5.555,11.98 5.871,11.98C6.911,11.98 7.701,11.625 8.249,10.915C8.994,9.956 9.367,8.467 9.367,6.449C9.367,4.823 9.114,3.523 8.603,2.551C8.2,1.792 7.68,1.274 7.046,1.001C6.6,0.807 5.856,0.713 4.818,0.72Z" style="fill:rgb(0,83,155);"/>
                </g>
                <g transform="matrix(1.359804,0,0,1.359804,1351.05007,38.685793)">
                    <path d="M0,-11.214L0,-6.055L0.252,-6.055C1.055,-6.055 1.635,-6.308 1.996,-6.813C2.356,-7.317 2.586,-8.061 2.686,-9.046L3.039,-9.046L3.039,-2.411L2.686,-2.411C2.61,-3.133 2.451,-3.726 2.209,-4.186C1.974,-4.647 1.698,-4.955 1.38,-5.112C1.062,-5.273 0.603,-5.354 0,-5.355L0,-1.784C0,-1.087 0.027,-0.66 0.083,-0.505C0.148,-0.349 0.259,-0.221 0.42,-0.121C0.581,-0.022 0.842,0.028 1.202,0.028L1.959,0.028C3.139,0.028 4.082,-0.246 4.791,-0.794C5.507,-1.342 6.017,-2.177 6.33,-3.299L6.674,-3.299L6.106,0.729L-4.819,0.729L-4.819,0.383L-4.398,0.383C-4.031,0.383 -3.737,0.317 -3.513,0.187C-3.352,0.1 -3.226,-0.05 -3.141,-0.262C-3.072,-0.411 -3.039,-0.804 -3.039,-1.44L-3.039,-9.775C-3.039,-10.347 -3.054,-10.7 -3.085,-10.831C-3.147,-11.048 -3.261,-11.217 -3.43,-11.336C-3.667,-11.509 -3.988,-11.597 -4.398,-11.597L-4.819,-11.597L-4.819,-11.943L5.761,-11.943L5.761,-8.196L5.407,-8.196C5.226,-9.112 4.972,-9.769 4.642,-10.167C4.32,-10.566 3.859,-10.858 3.263,-11.046C2.914,-11.158 2.263,-11.214 1.305,-11.214L0,-11.214Z" style="fill:rgb(0,83,155);"/>
                </g>
                <g transform="matrix(-1.359804,0,0,1.359804,1436.293305,15.739107)">
                    <path d="M-0.36,-0.36L-0.36,22.896L85.776,22.896L85.776,-0.36L-0.36,-0.36ZM84.306,1.11L84.306,21.426L1.11,21.426L1.11,1.11L84.306,1.11Z" style="fill:rgb(0,83,155);"/>
                </g>
            </g>
        </g>
    </g>
</svg>
